/vscmnt/brussel_pixiu_data/_data_brussel/112/vsc11236/PredSimResults/SUBJ11opt3D/weighted-trackIG/worker_01.mot
version=1
nRows=7
nColumns=50
inDegrees=yes
endheader
                time	         pelvis_tilt	         pelvis_list	     pelvis_rotation	           pelvis_tx	           pelvis_ty	           pelvis_tz	       hip_flexion_r	     hip_adduction_r	      hip_rotation_r	        knee_angle_r	       ankle_angle_r	         mtp_angle_r	       hip_flexion_l	     hip_adduction_l	      hip_rotation_l	        knee_angle_l	       ankle_angle_l	         mtp_angle_l	    lumbar_extension	      lumbar_bending	     lumbar_rotation	 ercspn_r/activation	 intobl_r/activation	 extobl_r/activation	    abd_r/activation	    add_r/activation	hamstrings_r/activation	bifemsh_r/activation	glut_max_r/activation	iliopsoas_r/activation	rect_fem_r/activation	  vasti_r/activation	gastroc_r/activation	 soleus_r/activation	tib_ant_r/activation	 ercspn_l/activation	 intobl_l/activation	 extobl_l/activation	    abd_l/activation	    add_l/activation	hamstrings_l/activation	bifemsh_l/activation	glut_max_l/activation	iliopsoas_l/activation	rect_fem_l/activation	  vasti_l/activation	gastroc_l/activation	 soleus_l/activation	tib_ant_l/activation	
          1.34088506	         -3.04805622	         -1.16281045	          5.46030063	          1.47497356	          0.94096800	         -0.00534963	         31.32970126	         -1.82651594	         -4.52159629	         -9.40514170	          1.90308107	          0.23144825	        -14.00157482	         -3.12400903	         -2.05056681	        -11.26218444	         12.68294274	         28.81387478	        -14.49275110	         -2.04603818	         -3.22368752	          0.03211503	          0.25453353	          0.06668128	          0.01000153	          0.18793507	          0.04501081	          0.16096458	          0.04236966	          0.10274600	          0.04159722	          0.01530793	          0.01000102	          0.01000016	          0.41225108	          0.01000209	          0.01000114	          0.01000167	          0.04103521	          0.01000344	          0.01658682	          0.26959296	          0.02404302	          0.15432115	          0.01000612	          0.01000166	          0.16419864	          0.32097598	          0.01496994	
          1.35429391	         -3.16475743	         -1.21152708	          5.61276511	          1.49342862	          0.93877807	         -0.00430918	         31.19188318	         -1.67714929	         -4.68443799	        -10.63454016	          1.35271213	          0.23984365	        -14.62659340	         -3.37269135	         -2.33121929	        -11.87817374	         11.88168764	         30.61453724	        -14.07343308	         -1.54817403	         -3.42211111	          0.02625067	          0.20804119	          0.05450136	          0.01000064	          0.21094444	          0.03769159	          0.13156507	          0.11491915	          0.08397853	          0.03400019	          0.01251202	          0.01370133	          0.01228517	          0.43697953	          0.02045555	          0.01000243	          0.01000469	          0.03353981	          0.05500364	          0.02154585	          0.22035753	          0.01965226	          0.16000942	          0.01000807	          0.01000315	          0.13438588	          0.30107864	          0.01223569	
          1.36770276	         -3.25891063	         -1.27118320	          5.74553851	          1.51232774	          0.93686413	         -0.00321902	         30.95203632	         -1.55323085	         -4.77983182	        -12.01021452	          0.88047216	          0.21110391	        -15.13451920	         -3.64442244	         -2.62517513	        -12.76349141	         10.93789927	         32.48292111	        -13.61586132	         -1.03030200	         -3.61586397	          0.02150465	          0.17004092	          0.04454622	          0.06797627	          0.22322852	          0.04491838	          0.10753518	          0.12590814	          0.06863912	          0.02779070	          0.01022694	          0.01119919	          0.01004131	          0.50576770	          0.01672364	          0.01000071	          0.01000301	          0.02741352	          0.04495831	          0.01761286	          0.18011218	          0.01606307	          0.17507819	          0.01000770	          0.01000214	          0.10983928	          0.27513156	          0.01000113	
          1.38111161	         -3.33363703	         -1.31888485	          5.84785672	          1.53132685	          0.93544327	         -0.00204773	         30.72277675	         -1.45136898	         -4.94893325	        -13.40362005	          0.21503303	          0.18289278	        -15.41395706	         -3.91635226	         -2.92950745	        -14.06210510	          9.81755848	         34.42379429	        -13.16238067	         -0.52435771	         -3.79617424	          0.03143811	          0.13898153	          0.03640949	          0.10440812	          0.27252789	          0.04130215	          0.08789409	          0.13546317	          0.05610160	          0.02271542	          0.02026710	          0.01000114	          0.01000043	          0.56072500	          0.04951790	          0.01000094	          0.01000197	          0.02240624	          0.04391503	          0.02093452	          0.14721661	          0.01312966	          0.15061553	          0.01000588	          0.01000258	          0.08977619	          0.24731766	          0.01000053	
          1.39452046	         -3.38806737	         -1.35586134	          5.92157858	          1.55023353	          0.93462129	         -0.00080350	         30.58761450	         -1.37169557	         -5.17222475	        -15.00695117	         -0.29581699	          0.13518927	        -15.39063811	         -4.19319345	         -3.23825424	        -15.87740548	          8.51740722	         36.38684541	        -12.73223198	         -0.03063020	         -3.96003954	          0.03649309	          0.11359541	          0.02975901	          0.13319095	          0.31731003	          0.04708020	          0.07184083	          0.13506569	          0.04585418	          0.01856715	          0.08453477	          0.01000191	          0.01000080	          0.59000880	          0.07518034	          0.01000104	          0.01000142	          0.01831358	          0.11370015	          0.01783905	          0.12033157	          0.01073200	          0.13588802	          0.01000351	          0.01000101	          0.07337778	          0.20559110	          0.01000049	
          1.40792931	         -3.42367737	         -1.37994321	          5.96541425	          1.56892021	          0.93450432	          0.00048775	         30.47018049	         -1.30265297	         -5.40067667	        -16.70794473	         -0.46705691	          0.08161306	        -14.99520607	         -4.47351597	         -3.55536011	        -18.30611422	          7.04163991	         38.23397488	        -12.33447894	          0.44852900	         -4.10252573	          0.02983188	          0.09284627	          0.02432331	          0.15168822	          0.34108028	          0.04795192	          0.05872021	          0.14899591	          0.03747855	          0.01517664	          0.13098250	          0.01000159	          0.01000052	          0.57972692	          0.10192588	          0.01000113	          0.01000186	          0.01496848	          0.17302086	          0.02243901	          0.09836291	          0.01000054	          0.11107334	          0.01000200	          0.01000048	          0.05997468	          0.16803798	          0.01000046	
          1.42133816	         -3.44244134	         -1.39237745	          5.97699241	          1.58723753	          0.93516653	          0.00179198	         30.30059862	         -1.22820389	         -5.58929817	        -18.38809578	         -0.20385019	          0.04048992	        -14.17280355	         -4.76010788	         -3.89679818	        -21.41005493	          5.40596785	         39.72941075	        -11.98085742	          0.91656222	         -4.21759384	          0.02438461	          0.07588717	          0.01988051	          0.16143517	          0.35481120	          0.05011191	          0.04799700	          0.14641414	          0.03063280	          0.01240557	          0.15705475	          0.01000119	          0.01000038	          0.52200466	          0.11497422	          0.01000173	          0.01000193	          0.01223442	          0.21204192	          0.03714028	          0.08476492	          0.01000040	          0.09078660	          0.01000107	          0.01000024	          0.04901978	          0.13734423	          0.01000094	
